<svg width="64" height="60" viewBox="0 0 64 60" fill="none" xmlns="http://www.w3.org/2000/svg">
<path d="M32.249 2.80958C32.9392 2.32415 33.8606 2.32428 34.5508 2.80958L62.3525 22.3643C63.9497 23.4879 63.155 25.9998 61.2021 26H53.3379V57C53.3378 58.6567 51.9946 59.9999 50.3379 60H15C13.3434 59.9998 12.0001 58.6567 12 57V26H5.59863C3.64608 25.9997 2.85069 23.488 4.44727 22.3643L32.249 2.80958ZM17.4746 24H17.1602V24.3311L17 24.5H17.1602V55H48.1641V24.5H48.3242L48.1641 24.3311V24H47.8496L32.6621 8.00001L17.4746 24Z" fill="#3037F8"/>
<path d="M28.6542 0.364105C29.3444 -0.121383 30.2657 -0.121353 30.9559 0.364105L58.7577 19.9188C60.3549 21.0424 59.5601 23.5543 57.6073 23.5545H49.743V54.5545C49.7428 56.2111 48.3997 57.5544 46.743 57.5545H11.4052C9.74854 57.5544 8.40536 56.2111 8.40516 54.5545V23.5545H2.00379C0.0511109 23.5543 -0.744193 21.0426 0.852423 19.9188L28.6542 0.364105ZM13.8798 21.5545H13.5653V21.8856L13.4052 22.0545H13.5653V52.5545H44.5692V22.0545H44.7294L44.5692 21.8856V21.5545H44.2548L29.0673 5.55453L13.8798 21.5545Z" fill="#14932B"/>
</svg>
