<svg width="60" height="60" viewBox="0 0 60 60" fill="none" xmlns="http://www.w3.org/2000/svg">
<path fill-rule="evenodd" clip-rule="evenodd" d="M31.5254 3.05084C47.2515 3.05084 60 15.7993 60 31.5254C60 47.2515 47.2515 60 31.5254 60C15.7993 60 3.05084 47.2515 3.05084 31.5254C3.05084 15.7993 15.7993 3.05084 31.5254 3.05084ZM31.5254 9.80799C19.531 9.80799 9.80799 19.531 9.80799 31.5254C9.80799 43.5199 19.531 53.2428 31.5254 53.2428C43.5199 53.2428 53.2428 43.5199 53.2428 31.5254C53.2428 19.531 43.5199 9.80799 31.5254 9.80799Z" fill="#FF3A79"/>
<path d="M42.6255 33.9387L42.2223 36.9627L27.7436 35.0321L28.1468 32.0081L42.6255 33.9387Z" fill="#FF3A79"/>
<path d="M33.1045 16.9425L31.1748 32.3864L28.1468 32.0081L30.0775 16.5641L33.1045 16.9425Z" fill="#FF3A79"/>
<path fill-rule="evenodd" clip-rule="evenodd" d="M28.4746 0C44.2006 0 56.9491 12.7485 56.9491 28.4746C56.9491 44.2006 44.2006 56.9491 28.4746 56.9491C12.7485 56.9491 0 44.2006 0 28.4746C0 12.7485 12.7485 0 28.4746 0ZM28.4746 6.75715C16.4801 6.75715 6.75715 16.4801 6.75715 28.4746C6.75715 40.469 16.4801 50.192 28.4746 50.192C40.469 50.192 50.192 40.469 50.192 28.4746C50.192 16.4801 40.469 6.75715 28.4746 6.75715Z" fill="#FDA4C6"/>
<path d="M39.5746 30.8878L39.1714 33.9119L24.6928 31.9813L25.096 28.9572L39.5746 30.8878Z" fill="#FDA4C6"/>
<path d="M30.0536 13.8917L28.124 29.3356L25.096 28.9572L27.0266 13.5133L30.0536 13.8917Z" fill="#FDA4C6"/>
</svg>
