<svg width="59" height="60" viewBox="0 0 59 60" fill="none" xmlns="http://www.w3.org/2000/svg">
<path d="M45.8299 18.7819C45.8299 26.912 39.2391 33.5028 31.109 33.5028C22.9788 33.5028 16.3881 26.912 16.3881 18.7819C16.3881 10.6517 22.9788 4.06094 31.109 4.06094C39.2391 4.06094 45.8299 10.6517 45.8299 18.7819Z" fill="#FF7949"/>
<path d="M4.06094 47.8171C4.06094 41.0887 8.08472 35.6343 13.0483 35.6343H49.8964C54.86 35.6343 58.8838 41.0887 58.8838 47.8171V60H4.06094V47.8171Z" fill="#FF7949"/>
<path d="M41.769 14.7209C41.769 22.8511 35.1782 29.4419 27.0481 29.4419C18.9179 29.4419 12.3271 22.8511 12.3271 14.7209C12.3271 6.59079 18.9179 0 27.0481 0C35.1782 0 41.769 6.59079 41.769 14.7209Z" fill="#FFE449"/>
<path d="M0 43.7562C0 37.0278 4.02377 31.5734 8.98735 31.5734H45.8355C50.799 31.5734 54.8228 37.0278 54.8228 43.7562V55.939H0V43.7562Z" fill="#FFE449"/>
</svg>
